<svg id="Camada_1" data-name="Camada 1" xmlns="http://www.w3.org/2000/svg" viewBox="0 0 356.98 730"><defs><style>.cls-1{fill:#fff;}.cls-2{fill:#fdfdfd;}.cls-3{fill:#fffffe;}.cls-4{fill:#070707;}.cls-13,.cls-5{fill:#533c90;}.cls-6{fill:#713d90;}.cls-7{fill:#b3b2b2;}.cls-8{fill:#656564;}.cls-9{fill:none;stroke:#999;stroke-miterlimit:10;stroke-width:7px;}.cls-10,.cls-13{font-size:72.54px;font-family:MyriadPro-Regular, Myriad Pro;}.cls-10{fill:#626161;}.cls-11{letter-spacing:0em;}.cls-12{letter-spacing:-0.01em;}</style></defs><title>iphone</title><path class="cls-1" d="M320,71.82v7.79H271.68c-.13-2.66-.24-5-.37-7.79Z" transform="translate(-117.42 -31)"/><path d="M165.26,761c-9.44-2.16-18.58-5-26.29-11.24-14.24-11.51-21.45-26.43-21.47-44.71q-.09-144.94-.08-289.9,0-160,0-319.9c0-11.08.24-22,5-32.24,7.88-16.85,21-27.06,39.1-31a22,22,0,0,0,2.68-1h261c8.91,1.57,17.46,4.06,24.93,9.42,16,11.52,24.09,27.11,24.08,46.86q0,65.75,0,131.48,0,242.7.15,485.41c.06,28.9-21.79,53.84-47.81,56.19a4.39,4.39,0,0,0-1.33.64ZM458.14,112.25H133.78V679.58H458.14ZM324.26,720.57c-.28-16.26-13.08-28.88-29-28.6-15.52.27-28,13.41-27.92,29.37.09,14.94,13.74,27.83,29.16,27.52S324.52,735.69,324.26,720.57ZM320,71.82H271.31c.13,2.74.24,5.13.37,7.79H320Z" transform="translate(-117.42 -31)"/><path class="cls-1" d="M324.26,720.57c.26,15.12-12.36,28-27.75,28.29s-29.07-12.58-29.16-27.52c-.09-16,12.4-29.1,27.92-29.37C311.18,691.69,324,704.31,324.26,720.57Zm-44.43-.32a16.2,16.2,0,0,0,15.82,16.48c8.41.26,16.34-7.45,16.44-16a16.73,16.73,0,0,0-16-16.52C287.52,704,280.07,711.3,279.83,720.25Z" transform="translate(-117.42 -31)"/><path d="M279.83,720.25c.24-9,7.69-16.26,16.29-16a16.73,16.73,0,0,1,16,16.52c-.1,8.53-8,16.24-16.44,16A16.2,16.2,0,0,1,279.83,720.25Z" transform="translate(-117.42 -31)"/><rect class="cls-2" x="16.36" y="81.25" width="324.35" height="567.33"/><path class="cls-3" d="M237,351.91q0-49.11,0-98.23c0-1.29.13-1.72,1.58-1.71q96,.08,191.93,0c1.26,0,1.52.31,1.51,1.56q0,98.34,0,196.66c0,1.17-.12,1.61-1.47,1.61q-96.08-.06-192.13,0c-1.47,0-1.41-.59-1.41-1.68Q237,401,237,351.91Zm35.72-9.61c.09,1.11.74,1.12,1.66,1.13,2.28,0,4.41-.85,6.64-1,.46,0,.92,0,1.38,0,1.15-.1,1.53-.77,1.48-1.93s-.84-1.17-1.64-1.17c-2.77,0-5.53,0-8.3,0-.67,0-1.53.06-1.68.75S271.52,341.81,272.71,342.3Zm61.67,92c1.85,0,3.72-.1,5.56,0a4.44,4.44,0,0,0,3.54-1.38c3.46-3.16,6.93-6.32,10.55-9.29a6,6,0,0,0,2.31-4.81c.36-8.07.82-16.14,1.33-24.2.13-2.17-.1-4.46,1.45-6.37a3.32,3.32,0,0,0,.23-2.76,5.24,5.24,0,0,1-.21-2.2c1.33-4.95,2.32-9.72,6.34-13.77C375.9,359,382,346.41,380.23,330.83c-1.18-10.62-4.82-20-12.92-27.09C359,296.41,349,293,338.25,291.94c-9-.92-17.62,1.3-25.9,4.89C291.24,306,286,328.11,289.25,344a50.64,50.64,0,0,0,16.24,27.84,7.2,7.2,0,0,1,1.91,2.27c2.49,5.36,1.43,11.5,3.62,16.91a2,2,0,0,1,0,.61c.53,9.22,1.1,18.44,1.56,27.66a5.07,5.07,0,0,0,2,4.1,65.37,65.37,0,0,1,6.76,6C325,433.19,329,435.69,334.38,434.29Zm.16-165c-2.93,0-3.09.06-2.77,3.15a112.12,112.12,0,0,1,.83,12.94c0,1.53.62,2.21,1.9,2.18s1.81-.72,1.81-2.13c0-4.93.69-9.81,1.14-14.71a1.13,1.13,0,0,0-1.13-1.42A17.58,17.58,0,0,0,334.54,269.29Zm-22.78,20.8c0-.08-.09-.42-.19-.74-1.14-3.75-2.3-7.49-3.42-11.24-1.2-4-1.17-3.95-4.92-2.38-1,.43-1.17,1.06-.75,1.89,2.17,4.39,4.48,8.71,6.36,13.25.24.59.84,1.13,1.61.61C310.94,291.16,311.92,291.42,311.76,290.09ZM366.71,277c-.39-1.42-1.79-1.43-2.75-2-1.52-.88-2.3-.24-2.75,1.46-1.14,4.22-2.45,8.39-3.66,12.58-.21.76-1.15,1.57.4,2.23s1.84.06,2.38-1.08c1.95-4.1,4-8.16,6-12.24C366.45,277.69,366.56,277.38,366.71,277ZM291.4,304.29c.67-.17,1.4-.05,1.69-.67.36-.78-.33-1.33-.8-1.66a8.87,8.87,0,0,1-1.3-1.39c-2.58-2.67-4.48-5.9-7-8.65-.44-.49-.86-1-1.46-.43a17.43,17.43,0,0,0-2.22,2.56,1.2,1.2,0,0,0,.35,1.77c3.44,2.42,6.5,5.34,9.72,8.05A3.45,3.45,0,0,0,291.4,304.29Zm86,0a2.14,2.14,0,0,0,1.25-.48c2.58-2.22,5.32-4.26,7.72-6.65.71-.71,2.19-1.34,1.89-2.84a4,4,0,0,0-2.21-2.92c-1-.41-1.37,1-1.93,1.64-.34.4-.64.84-1,1.25-2.17,2.58-4.34,5.15-6.5,7.74a1.53,1.53,0,0,0-.41,1.66C376.41,304.23,376.93,304.15,377.36,304.28ZM284.1,320.74c.45,0,1.31.28,1.5-1,.16-1.09-.35-1.4-1.24-1.66-3.55-1-7.11-2-10.64-3.15-1.8-.56-2,.67-2.21,1.9s-.65,2.6,1.44,2.76C276.57,319.88,280.18,320.33,284.1,320.74Zm113.51-2.81c-.07-3.09-.69-3.49-3.41-2.62-3.13,1-6.29,1.95-9.48,2.74-1.09.27-1.41.69-1.31,1.75.1,1.23.93.92,1.6.86,3.68-.34,7.36-.73,11-1.06C397.18,319.5,397.81,319.07,397.61,317.93Zm-6.27,21.49v-.05H387c-1,0-1.76.36-1.79,1.43a1.5,1.5,0,0,0,1.54,1.53c2.68.17,5.24,1.15,7.95,1.18,1,0,1.35-.17,1.51-1.24.42-2.88.49-2.87-2.49-2.85ZM280.65,361.23a14.92,14.92,0,0,0,1.39,2c.72.76,1.21-.18,1.68-.49,1.91-1.29,3.75-2.7,5.66-4,.65-.45,1-.81.54-1.62a1.1,1.1,0,0,0-1.66-.5c-2.22,1.15-4.44,2.3-6.63,3.49C281.27,360.34,280.72,360.46,280.65,361.23Zm105.7,2.35c.9-.31,1.23-1.16,1.68-1.87s-.13-1.24-.71-1.54c-2.21-1.17-4.44-2.32-6.67-3.44-.59-.3-1.24-.6-1.72.24s.13,1.28.63,1.66c2,1.48,3.94,2.91,5.91,4.35C385.74,363.18,386,363.35,386.35,363.58Zm-15.24,7a1.64,1.64,0,0,0-.25,1.92c.61,1.32,1.25,2.62,1.93,3.9.45.85,1.18,1.46,2.08.8a1.54,1.54,0,0,0,.19-2.33C373.63,373.57,372.79,371.68,371.11,370.59Zm-73,2c.23-.93.24-1.31-.05-1.67a.39.39,0,0,0-.66,0c-1.37,1.52-3,2.89-3.72,4.89-.26.7.52,1,.82,1.51a.54.54,0,0,0,.87,0C296.42,375.56,297.4,373.83,298.13,372.56Z" transform="translate(-117.42 -31)"/><path class="cls-4" d="M334.38,434.29c-5.43,1.4-9.39-1.1-13-4.92a65.37,65.37,0,0,0-6.76-6,5.07,5.07,0,0,1-2-4.1c-.46-9.22-1-18.44-1.56-27.66a2,2,0,0,0,0-.61c-2.19-5.41-1.13-11.55-3.62-16.91a7.2,7.2,0,0,0-1.91-2.27A50.64,50.64,0,0,1,289.25,344c-3.27-15.86,2-38,23.1-47.14,8.28-3.59,16.87-5.81,25.9-4.89,10.72,1.1,20.71,4.47,29.06,11.8,8.1,7.1,11.74,16.47,12.92,27.09,1.72,15.58-4.33,28.21-14.75,38.71-4,4-5,8.82-6.34,13.77a5.24,5.24,0,0,0,.21,2.2,3.32,3.32,0,0,1-.23,2.76c-1.55,1.91-1.32,4.2-1.45,6.37-.51,8.06-1,16.13-1.33,24.2a6,6,0,0,1-2.31,4.81c-3.62,3-7.09,6.13-10.55,9.29a4.44,4.44,0,0,1-3.54,1.38C338.1,434.19,336.23,434.29,334.38,434.29Zm-15-37.2h4.73l13.18,0h11.88a15.69,15.69,0,0,1,2.17.1c1.44.25,1.54-.61,1.67-1.74.18-1.62-.93-1.11-1.66-1.16a19.91,19.91,0,0,0-2.18.06l-11.88,0-13.18,0h-4.74a11.82,11.82,0,0,0-1.78,0c-.65.08-1.77-.57-1.66.94.07,1.07,0,2.27,1.67,1.95A11.61,11.61,0,0,1,319.38,397.09Zm0,6.17a24.06,24.06,0,0,0,4.8,0l13.48,0,11.57,0a11.48,11.48,0,0,1,1.76.12c1.38.3,1.6-.48,1.72-1.65.16-1.46-.71-1.3-1.58-1.27l-2,.08a115.88,115.88,0,0,0-11.64.08c-4.47-.33-8.94-.13-13.42-.1l-4.67,0a12.44,12.44,0,0,1-1.37-.1c-1.78-.32-2.07.73-1.64,2.09C317,404.27,318.35,403.07,319.35,403.26Zm.09,5.05a18.68,18.68,0,0,0,5,0,117.74,117.74,0,0,0,12.88,0c3.93.24,7.86.17,11.8,0a13.79,13.79,0,0,1,1.57.1c1.59.29,1.59-.72,1.68-1.91.11-1.54-.89-1.15-1.66-1.18-.53,0-1.05.05-1.58.08H337.31l-12.84,0-5.06,0c-1.19.13-3.13-1.09-2.8,1.73C316.87,409.48,318.43,408.1,319.44,408.31Zm.36,7.05,4.67,0,12.84,0h11.83c2.77.2,2.69.19,2.86-2.41s-1.68-1.16-2.64-1.48c-.05,0-.12,0-.19,0H324.5l-4.74,0c-3.57-.13-2.72-.17-2.74,2.5C317,416.38,318.75,415.13,319.8,415.36ZM338.59,427l-.18-.15c.95-2.76,2.68-5.19,3.52-8.22-2.35,0-4.47.07-6.58,0-1.33-.06-1.85.46-2.11,1.77-.52,2.55-1.22,5.07-2,8.13-2.87-3-5.53-5.66-8-8.48-1.61-1.84-3.39-1.42-5.48-1.22a7.71,7.71,0,0,0,.56.69c2.15,1.91,4.61,3.56,6.4,5.78,3.51,4.33,8,5.08,13,4.49.59-.07,1.2.08,1.71-.37L351.2,419c-3.53-.68-3.78-.55-5.87,1.5S341.15,425.17,338.59,427Zm16.52-39.26a2.74,2.74,0,0,0,.27-2.88,3.77,3.77,0,0,1,0-2.18q1.33-5.1,2.63-10.22c.13-.52.15-1,.71-1.36,2.09-1.25,3.58-3.18,5.15-5,13.13-15.14,14.25-30.34,6.43-47a32.58,32.58,0,0,0-22.8-18.55A72,72,0,0,0,336.82,299a49.42,49.42,0,0,0-17.66,2.22,31.44,31.44,0,0,0-15.8,10.67c-7.21,8.75-10,19-9.35,30.28a34.25,34.25,0,0,0,7.14,18.63,40.69,40.69,0,0,0,7.86,9.36,7.88,7.88,0,0,1,2.51,4.22c.65,2.84,1.38,5.65,2.09,8.47a3.59,3.59,0,0,1,.07,1.6,3.94,3.94,0,0,0,4,5c11.52.05,23,0,34.55,0A2.79,2.79,0,0,0,355.11,387.76Z" transform="translate(-117.42 -31)"/><path class="cls-5" d="M334.54,269.29a17.58,17.58,0,0,1,1.78,0,1.13,1.13,0,0,1,1.13,1.42c-.45,4.9-1.14,9.78-1.14,14.71,0,1.41-.62,2.1-1.81,2.13s-1.93-.65-1.9-2.18a112.12,112.12,0,0,0-.83-12.94C331.45,269.35,331.61,269.33,334.54,269.29Z" transform="translate(-117.42 -31)"/><path class="cls-6" d="M311.76,290.09c.16,1.33-.82,1.07-1.31,1.39-.77.52-1.37,0-1.61-.61-1.88-4.54-4.19-8.86-6.36-13.25-.42-.83-.28-1.46.75-1.89,3.75-1.57,3.72-1.6,4.92,2.38,1.12,3.75,2.28,7.49,3.42,11.24C311.67,289.67,311.74,290,311.76,290.09Z" transform="translate(-117.42 -31)"/><path class="cls-6" d="M366.71,277c-.15.36-.26.67-.41,1-2,4.08-4,8.14-6,12.24-.54,1.14-1,1.66-2.38,1.08s-.61-1.47-.4-2.23c1.21-4.19,2.52-8.36,3.66-12.58.45-1.7,1.23-2.34,2.75-1.46C364.92,275.59,366.32,275.6,366.71,277Z" transform="translate(-117.42 -31)"/><path class="cls-5" d="M291.4,304.29a3.45,3.45,0,0,1-1-.42c-3.22-2.71-6.28-5.63-9.72-8.05a1.2,1.2,0,0,1-.35-1.77,17.43,17.43,0,0,1,2.22-2.56c.6-.57,1-.06,1.46.43,2.48,2.75,4.38,6,7,8.65a8.87,8.87,0,0,0,1.3,1.39c.47.33,1.16.88.8,1.66C292.8,304.24,292.07,304.12,291.4,304.29Z" transform="translate(-117.42 -31)"/><path class="cls-5" d="M377.36,304.28c-.43-.13-.95,0-1.17-.6a1.53,1.53,0,0,1,.41-1.66c2.16-2.59,4.33-5.16,6.5-7.74.34-.41.64-.85,1-1.25.56-.68.94-2,1.93-1.64a4,4,0,0,1,2.21,2.92c.3,1.5-1.18,2.13-1.89,2.84-2.4,2.39-5.14,4.43-7.72,6.65A2.14,2.14,0,0,1,377.36,304.28Z" transform="translate(-117.42 -31)"/><path class="cls-6" d="M284.1,320.74c-3.92-.41-7.53-.86-11.15-1.14-2.09-.16-1.63-1.53-1.44-2.76s.41-2.46,2.21-1.9c3.53,1.1,7.09,2.14,10.64,3.15.89.26,1.4.57,1.24,1.66C285.41,321,284.55,320.71,284.1,320.74Z" transform="translate(-117.42 -31)"/><path class="cls-6" d="M397.61,317.93c.2,1.14-.43,1.57-1.56,1.67-3.68.33-7.36.72-11,1.06-.67.06-1.5.37-1.6-.86-.1-1.06.22-1.48,1.31-1.75,3.19-.79,6.35-1.75,9.48-2.74C396.92,314.44,397.54,314.84,397.61,317.93Z" transform="translate(-117.42 -31)"/><path class="cls-5" d="M391.34,339.42h2.37c3,0,2.91,0,2.49,2.85-.16,1.07-.51,1.25-1.51,1.24-2.71,0-5.27-1-7.95-1.18a1.5,1.5,0,0,1-1.54-1.53c0-1.07.82-1.44,1.79-1.43h4.35Z" transform="translate(-117.42 -31)"/><path class="cls-6" d="M280.65,361.23c.07-.77.62-.89,1-1.09,2.19-1.19,4.41-2.34,6.63-3.49a1.1,1.1,0,0,1,1.66.5c.45.81.11,1.17-.54,1.62-1.91,1.29-3.75,2.7-5.66,4-.47.31-1,1.25-1.68.49A14.92,14.92,0,0,1,280.65,361.23Z" transform="translate(-117.42 -31)"/><path class="cls-6" d="M386.35,363.58c-.33-.23-.61-.4-.88-.6-2-1.44-4-2.87-5.91-4.35-.5-.38-1.11-.83-.63-1.66s1.13-.54,1.72-.24c2.23,1.12,4.46,2.27,6.67,3.44.58.3,1.26.69.71,1.54S387.25,363.27,386.35,363.58Z" transform="translate(-117.42 -31)"/><path class="cls-5" d="M281,342.42c-2.23.16-4.36,1-6.64,1-.92,0-1.57,0-1.66-1.13.28-.78-.52-2,.93-2.29a39.1,39.1,0,0,1,7.64-.42c1,0,1.32.52.81,1.41A12.09,12.09,0,0,1,281,342.42Z" transform="translate(-117.42 -31)"/><path class="cls-5" d="M371.11,370.59c1.68,1.09,2.52,3,3.95,4.29a1.54,1.54,0,0,1-.19,2.33c-.9.66-1.63.05-2.08-.8-.68-1.28-1.32-2.58-1.93-3.9A1.64,1.64,0,0,1,371.11,370.59Z" transform="translate(-117.42 -31)"/><path class="cls-5" d="M298.13,372.56c-.73,1.27-1.71,3-2.74,4.69a.54.54,0,0,1-.87,0c-.3-.49-1.08-.81-.82-1.51.76-2,2.35-3.37,3.72-4.89a.39.39,0,0,1,.66,0C298.37,371.25,298.36,371.63,298.13,372.56Z" transform="translate(-117.42 -31)"/><path class="cls-7" d="M281,342.42a12.09,12.09,0,0,0,1.08-1.42c.51-.89.23-1.4-.81-1.41a39.1,39.1,0,0,0-7.64.42c-1.45.27-.65,1.51-.93,2.29-1.19-.49-.61-1.52-.46-2.21s1-.75,1.68-.75c2.77,0,5.53,0,8.3,0,.8,0,1.59-.07,1.64,1.17s-.33,1.83-1.48,1.93C281.93,342.44,281.47,342.41,281,342.42Z" transform="translate(-117.42 -31)"/><path class="cls-6" d="M301.15,360.81A34.25,34.25,0,0,1,294,342.18c-.64-11.25,2.14-21.53,9.35-30.28a31.44,31.44,0,0,1,15.8-10.67A49.42,49.42,0,0,1,336.82,299a72,72,0,0,1,10.65,1.57,32.58,32.58,0,0,1,22.8,18.55c7.82,16.66,6.7,31.86-6.43,47-1.57,1.81-3.06,3.74-5.15,5-.56.33-.58.84-.71,1.36q-1.31,5.11-2.63,10.22a3.77,3.77,0,0,0,0,2.18,2.74,2.74,0,0,1-.27,2.88,10,10,0,0,0-2.68-2,27.47,27.47,0,0,1-6.74-5.55c-4.3-4.9-7.89-10.21-9.36-16.82a28.43,28.43,0,0,0-2.74-7.48c-3.73-6.74-9.48-10-17.1-9.31-1.52.13-3.21.13-4.32,1.58a26.17,26.17,0,0,1-1.12-4.85c-.22-5.25-.31-10.43,1.36-15.64,2.67-8.31,7.94-14.33,14.57-19.37,1.82-1.39,3.9-2.43,5.86-3.64a20.58,20.58,0,0,0-8.61,1.07,29,29,0,0,0-14.85,9.94c-4.27,5.49-7.6,11.49-9,18.52a26.08,26.08,0,0,0,0,10c.72,3.84,2.69,7.06,4.24,10.5A17.86,17.86,0,0,0,301.15,360.81ZM367.38,351c-.65.08-.81.56-1.08.92-1.08,1.44-1.95,3.18-3.32,4.21-2.91,2.19-5.77,4.42-8.54,6.79a9.47,9.47,0,0,0-1.77,12.29,19.24,19.24,0,0,1,4.91-8.15,41,41,0,0,0,8.65-11.13C366.94,354.45,367.86,352.83,367.38,351Z" transform="translate(-117.42 -31)"/><path class="cls-5" d="M301.15,360.81a17.86,17.86,0,0,1,3.47-6.06c2.79,3.93,5.65,7.81,8.36,11.81,3.28,4.85,6,10,6.74,16,.06.49-.25,1.25.37,1.42s1-.55,1.31-1c1.92-2.62,1.76-5.56,1.18-8.54-1-5-3.15-9.59-5.34-14.14-1.89-3.93-4.24-7.66-5.07-12.06,1.11-1.45,2.8-1.45,4.32-1.58,7.62-.66,13.37,2.57,17.1,9.31a28.43,28.43,0,0,1,2.74,7.48c1.47,6.61,5.06,11.92,9.36,16.82a27.47,27.47,0,0,0,6.74,5.55,10,10,0,0,1,2.68,2,2.79,2.79,0,0,1-2.9,1.68c-11.52,0-23,.06-34.55,0a3.94,3.94,0,0,1-4-5,3.59,3.59,0,0,0-.07-1.6c-.71-2.82-1.44-5.63-2.09-8.47a7.88,7.88,0,0,0-2.51-4.22A40.69,40.69,0,0,1,301.15,360.81Z" transform="translate(-117.42 -31)"/><path class="cls-8" d="M338.59,427c2.56-1.85,4.5-4.37,6.74-6.57s2.34-2.18,5.87-1.5l-11.77,10.47c-.51.45-1.12.3-1.71.37-5,.59-9.45-.16-13-4.49-1.79-2.22-4.25-3.87-6.4-5.78a7.71,7.71,0,0,1-.56-.69c2.09-.2,3.87-.62,5.48,1.22,2.46,2.82,5.12,5.46,8,8.48.75-3.06,1.45-5.58,2-8.13.26-1.31.78-1.83,2.11-1.77,2.11.09,4.23,0,6.58,0-.84,3-2.57,5.46-3.52,8.22-.23.13-.42.4-.2.54S338.5,427.2,338.59,427Z" transform="translate(-117.42 -31)"/><path class="cls-7" d="M337.31,415.31l-12.84,0,0-3.86h12.78Z" transform="translate(-117.42 -31)"/><path class="cls-3" d="M337.31,415.31l0-3.84h11.89l0,3.86Z" transform="translate(-117.42 -31)"/><path class="cls-7" d="M337.33,408.31a117.74,117.74,0,0,1-12.88,0l0-2.83,12.84,0Z" transform="translate(-117.42 -31)"/><path class="cls-3" d="M337.33,408.31l0-2.87h11.83v2.91C345.19,408.48,341.26,408.55,337.33,408.31Z" transform="translate(-117.42 -31)"/><path class="cls-7" d="M337.63,403.31l-13.48,0-.07-2.76c4.48,0,8.95-.23,13.42.1C337.54,401.53,337.58,402.42,337.63,403.31Z" transform="translate(-117.42 -31)"/><path class="cls-7" d="M337.29,397.07l-13.18,0v-2.77l13.18,0Z" transform="translate(-117.42 -31)"/><path class="cls-3" d="M337.29,397.07v-2.71l11.88,0v2.74Z" transform="translate(-117.42 -31)"/><path class="cls-3" d="M337.63,403.31c-.05-.89-.09-1.78-.13-2.68a115.88,115.88,0,0,1,11.64-.08l.06,2.72Z" transform="translate(-117.42 -31)"/><path class="cls-3" d="M324.5,411.47l0,3.86-4.67,0,0-3.93Z" transform="translate(-117.42 -31)"/><path class="cls-3" d="M324.47,405.46l0,2.83a18.68,18.68,0,0,1-5,0l0-2.87Z" transform="translate(-117.42 -31)"/><path class="cls-3" d="M324.08,400.53l.07,2.76a24.06,24.06,0,0,1-4.8,0l.06-2.7Z" transform="translate(-117.42 -31)"/><path class="cls-3" d="M324.11,394.33v2.77h-4.73v-2.77Z" transform="translate(-117.42 -31)"/><path class="cls-7" d="M319.76,411.43l0,3.93c-1.05-.23-2.79,1-2.78-1.43C317,411.26,316.19,411.3,319.76,411.43Z" transform="translate(-117.42 -31)"/><path class="cls-7" d="M349.14,415.32l0-3.86c.07,0,.14,0,.19,0,1,.32,2.8-1.12,2.64,1.48S351.91,415.52,349.14,415.32Z" transform="translate(-117.42 -31)"/><path class="cls-7" d="M349.17,397.08v-2.74a19.91,19.91,0,0,1,2.18-.06c.73.05,1.84-.46,1.66,1.16-.13,1.13-.23,2-1.67,1.74A15.69,15.69,0,0,0,349.17,397.08Z" transform="translate(-117.42 -31)"/><path class="cls-7" d="M349.2,403.27l-.06-2.72,2-.08c.87,0,1.74-.19,1.58,1.27-.12,1.17-.34,1.95-1.72,1.65A11.48,11.48,0,0,0,349.2,403.27Z" transform="translate(-117.42 -31)"/><path class="cls-7" d="M349.13,408.35v-2.91c.53,0,1.05-.09,1.58-.08.77,0,1.77-.36,1.66,1.18-.09,1.19-.09,2.2-1.68,1.91A13.79,13.79,0,0,0,349.13,408.35Z" transform="translate(-117.42 -31)"/><path class="cls-7" d="M319.37,394.32v2.77a11.61,11.61,0,0,0-1.78.08c-1.67.32-1.6-.88-1.67-1.95-.11-1.51,1-.86,1.66-.94A11.82,11.82,0,0,1,319.37,394.32Z" transform="translate(-117.42 -31)"/><path class="cls-7" d="M319.41,400.56l-.06,2.7c-1-.19-2.4,1-3-.71-.43-1.36-.14-2.41,1.64-2.09A12.44,12.44,0,0,0,319.41,400.56Z" transform="translate(-117.42 -31)"/><path class="cls-7" d="M319.41,405.44l0,2.87c-1-.21-2.57,1.17-2.83-1.14C316.28,404.35,318.22,405.57,319.41,405.44Z" transform="translate(-117.42 -31)"/><path class="cls-3" d="M312.17,348.22c.83,4.4,3.18,8.13,5.07,12.06,2.19,4.55,4.35,9.12,5.34,14.14.58,3,.74,5.92-1.18,8.54-.35.47-.65,1.21-1.31,1s-.31-.93-.37-1.42c-.73-6-3.46-11.15-6.74-16-2.71-4-5.57-7.88-8.36-11.81-1.55-3.44-3.52-6.66-4.24-10.5a26.08,26.08,0,0,1,0-10c1.4-7,4.73-13,9-18.52a29,29,0,0,1,14.85-9.94,20.58,20.58,0,0,1,8.61-1.07c-2,1.21-4,2.25-5.86,3.64-6.63,5-11.9,11.06-14.57,19.37-1.67,5.21-1.58,10.39-1.36,15.64A26.17,26.17,0,0,0,312.17,348.22Z" transform="translate(-117.42 -31)"/><path class="cls-5" d="M367.38,351c.48,1.86-.44,3.48-1.15,4.93A41,41,0,0,1,357.58,367a19.24,19.24,0,0,0-4.91,8.15,9.47,9.47,0,0,1,1.77-12.29c2.77-2.37,5.63-4.6,8.54-6.79,1.37-1,2.24-2.77,3.32-4.21C366.57,351.53,366.73,351.05,367.38,351Z" transform="translate(-117.42 -31)"/><path class="cls-4" d="M338.59,427c-.09.18-.1.57-.38.39s0-.41.2-.54Z" transform="translate(-117.42 -31)"/><line class="cls-9" x1="310.68" y1="235.94" x2="310.68" y2="490.7"/><text class="cls-10" transform="translate(26.7 394.04)"><tspan class="cls-11">S</tspan><tspan x="35.55" y="0">t</tspan><tspan class="cls-12" x="59.56" y="0">a</tspan><tspan x="93.94" y="0">y</tspan></text><text class="cls-13" transform="translate(111.75 472.02)">Clear</text></svg>